<?xml version="1.0" encoding="UTF-8"?>
<!DOCTYPE svg PUBLIC "-//W3C//DTD SVG 1.1//EN" "http://www.w3.org/Graphics/SVG/1.1/DTD/svg11.dtd">
<svg xmlns="http://www.w3.org/2000/svg" version="1.1" width="100px" height="100px" style="shape-rendering:geometricPrecision; text-rendering:geometricPrecision; image-rendering:optimizeQuality; fill-rule:evenodd; clip-rule:evenodd" xmlns:xlink="http://www.w3.org/1999/xlink">
<g><path style="opacity:0.927" fill="#fefffe" d="M 44.5,5.5 C 47.8499,5.33499 51.1832,5.50166 54.5,6C 58.1099,7.94402 61.4432,10.2774 64.5,13C 69.4889,13.4993 74.4889,13.6659 79.5,13.5C 79.3343,17.8461 79.501,22.1794 80,26.5C 84.1994,31.0343 88.6994,35.201 93.5,39C 87.7589,43.9526 81.9256,48.7859 76,53.5C 75.5001,41.5046 75.3335,29.5046 75.5,17.5C 58.1667,17.5 40.8333,17.5 23.5,17.5C 23.6665,29.5046 23.4999,41.5046 23,53.5C 17.0744,48.7859 11.2411,43.9526 5.5,39C 10.3006,35.201 14.8006,31.0343 19,26.5C 19.499,22.1794 19.6657,17.8461 19.5,13.5C 24.5111,13.6659 29.5111,13.4993 34.5,13C 37.7342,10.2519 41.0676,7.75186 44.5,5.5 Z"/></g>
<g><path style="opacity:0.976" fill="#fefffe" d="M 29.5,27.5 C 42.8333,27.5 56.1667,27.5 69.5,27.5C 69.5,28.8333 69.5,30.1667 69.5,31.5C 56.1667,31.5 42.8333,31.5 29.5,31.5C 29.5,30.1667 29.5,28.8333 29.5,27.5 Z"/></g>
<g><path style="opacity:0.963" fill="#fefffe" d="M 29.5,37.5 C 38.1667,37.5 46.8333,37.5 55.5,37.5C 55.5,38.8333 55.5,40.1667 55.5,41.5C 46.8333,41.5 38.1667,41.5 29.5,41.5C 29.5,40.1667 29.5,38.8333 29.5,37.5 Z"/></g>
<g><path style="opacity:0.918" fill="#fefffe" d="M 5.5,43.5 C 14.2441,49.4033 22.5774,55.9033 30.5,63C 22.2422,69.3797 14.0755,75.8797 6,82.5C 5.50011,69.5043 5.33344,56.5043 5.5,43.5 Z"/></g>
<g><path style="opacity:0.921" fill="#fefffe" d="M 92.5,43.5 C 93.6602,56.3268 93.8269,69.3268 93,82.5C 84.56,76.3608 76.3933,69.8608 68.5,63C 76.3987,56.2572 84.3987,49.7572 92.5,43.5 Z"/></g>
<g><path style="opacity:0.965" fill="#fefffe" d="M 46.5,54.5 C 50.1309,54.1604 53.4642,54.9937 56.5,57C 68.7582,66.7134 80.9249,76.5468 93,86.5C 93.4966,88.8098 93.6633,91.1432 93.5,93.5C 64.1667,93.5 34.8333,93.5 5.5,93.5C 5.22288,90.5525 5.55621,87.7191 6.5,85C 20.0181,74.9698 33.3514,64.8032 46.5,54.5 Z"/></g>
</svg>
